<mxfile host="app.diagrams.net" agent="Mozilla/5.0 (Windows NT 10.0; Win64; x64) AppleWebKit/537.36 (KHTML, like Gecko) Chrome/134.0.0.0 Safari/537.36" version="26.1.3">
  <diagram name="Page-1" id="GgfvSVg5NmS11P10vQXf">
    <mxGraphModel dx="1674" dy="744" grid="1" gridSize="10" guides="1" tooltips="1" connect="1" arrows="1" fold="1" page="1" pageScale="1" pageWidth="850" pageHeight="1100" math="0" shadow="0">
      <root>
        <mxCell id="0" />
        <mxCell id="1" parent="0" />
        <mxCell id="KmzcfbLIdUhC8Vbk3q4U-1" value="Knjiga" style="rounded=0;whiteSpace=wrap;html=1;" vertex="1" parent="1">
          <mxGeometry x="360" y="350" width="120" height="60" as="geometry" />
        </mxCell>
        <mxCell id="KmzcfbLIdUhC8Vbk3q4U-2" value="" style="endArrow=none;html=1;rounded=0;exitX=0;exitY=0.5;exitDx=0;exitDy=0;" edge="1" parent="1" source="KmzcfbLIdUhC8Vbk3q4U-1" target="KmzcfbLIdUhC8Vbk3q4U-3">
          <mxGeometry width="50" height="50" relative="1" as="geometry">
            <mxPoint x="400" y="410" as="sourcePoint" />
            <mxPoint x="280" y="380" as="targetPoint" />
          </mxGeometry>
        </mxCell>
        <mxCell id="KmzcfbLIdUhC8Vbk3q4U-3" value="Posuđuje" style="rhombus;whiteSpace=wrap;html=1;" vertex="1" parent="1">
          <mxGeometry x="210" y="340" width="100" height="80" as="geometry" />
        </mxCell>
        <mxCell id="KmzcfbLIdUhC8Vbk3q4U-4" value="" style="endArrow=none;html=1;rounded=0;entryX=0;entryY=0.5;entryDx=0;entryDy=0;" edge="1" parent="1" target="KmzcfbLIdUhC8Vbk3q4U-3">
          <mxGeometry width="50" height="50" relative="1" as="geometry">
            <mxPoint x="150" y="380" as="sourcePoint" />
            <mxPoint x="450" y="360" as="targetPoint" />
          </mxGeometry>
        </mxCell>
        <mxCell id="KmzcfbLIdUhC8Vbk3q4U-5" value="Korisnik" style="rounded=0;whiteSpace=wrap;html=1;" vertex="1" parent="1">
          <mxGeometry x="30" y="350" width="120" height="60" as="geometry" />
        </mxCell>
        <mxCell id="KmzcfbLIdUhC8Vbk3q4U-7" value="Posuđena" style="rhombus;whiteSpace=wrap;html=1;" vertex="1" parent="1">
          <mxGeometry x="480" y="450" width="110" height="60" as="geometry" />
        </mxCell>
        <mxCell id="KmzcfbLIdUhC8Vbk3q4U-8" value="" style="endArrow=none;html=1;rounded=0;entryX=0;entryY=0.5;entryDx=0;entryDy=0;exitX=0.5;exitY=1;exitDx=0;exitDy=0;" edge="1" parent="1" source="KmzcfbLIdUhC8Vbk3q4U-1" target="KmzcfbLIdUhC8Vbk3q4U-7">
          <mxGeometry width="50" height="50" relative="1" as="geometry">
            <mxPoint x="420" y="480" as="sourcePoint" />
            <mxPoint x="450" y="360" as="targetPoint" />
          </mxGeometry>
        </mxCell>
        <mxCell id="KmzcfbLIdUhC8Vbk3q4U-9" value="Pripada" style="rhombus;whiteSpace=wrap;html=1;" vertex="1" parent="1">
          <mxGeometry x="250" y="450" width="110" height="60" as="geometry" />
        </mxCell>
        <mxCell id="KmzcfbLIdUhC8Vbk3q4U-10" value="" style="endArrow=none;html=1;rounded=0;exitX=0.5;exitY=1;exitDx=0;exitDy=0;" edge="1" parent="1" source="KmzcfbLIdUhC8Vbk3q4U-1">
          <mxGeometry width="50" height="50" relative="1" as="geometry">
            <mxPoint x="420" y="480" as="sourcePoint" />
            <mxPoint x="360" y="480" as="targetPoint" />
          </mxGeometry>
        </mxCell>
        <mxCell id="KmzcfbLIdUhC8Vbk3q4U-11" value="" style="endArrow=none;html=1;rounded=0;entryX=0.5;entryY=1;entryDx=0;entryDy=0;" edge="1" parent="1" target="KmzcfbLIdUhC8Vbk3q4U-9">
          <mxGeometry width="50" height="50" relative="1" as="geometry">
            <mxPoint x="305" y="560" as="sourcePoint" />
            <mxPoint x="450" y="360" as="targetPoint" />
          </mxGeometry>
        </mxCell>
        <mxCell id="KmzcfbLIdUhC8Vbk3q4U-12" value="" style="endArrow=none;html=1;rounded=0;entryX=0.5;entryY=1;entryDx=0;entryDy=0;" edge="1" parent="1" target="KmzcfbLIdUhC8Vbk3q4U-7">
          <mxGeometry width="50" height="50" relative="1" as="geometry">
            <mxPoint x="535" y="560" as="sourcePoint" />
            <mxPoint x="315" y="520" as="targetPoint" />
          </mxGeometry>
        </mxCell>
        <mxCell id="KmzcfbLIdUhC8Vbk3q4U-13" value="Zaduženje" style="rounded=0;whiteSpace=wrap;html=1;" vertex="1" parent="1">
          <mxGeometry x="245" y="560" width="105" height="60" as="geometry" />
        </mxCell>
        <mxCell id="KmzcfbLIdUhC8Vbk3q4U-14" value="Posudba" style="rounded=0;whiteSpace=wrap;html=1;" vertex="1" parent="1">
          <mxGeometry x="490" y="560" width="105" height="60" as="geometry" />
        </mxCell>
        <mxCell id="KmzcfbLIdUhC8Vbk3q4U-15" value="Duguje" style="rhombus;whiteSpace=wrap;html=1;" vertex="1" parent="1">
          <mxGeometry x="35" y="560" width="110" height="60" as="geometry" />
        </mxCell>
        <mxCell id="KmzcfbLIdUhC8Vbk3q4U-16" value="" style="endArrow=none;html=1;rounded=0;entryX=1;entryY=0.5;entryDx=0;entryDy=0;" edge="1" parent="1" target="KmzcfbLIdUhC8Vbk3q4U-15">
          <mxGeometry width="50" height="50" relative="1" as="geometry">
            <mxPoint x="245" y="590" as="sourcePoint" />
            <mxPoint x="185" y="590" as="targetPoint" />
          </mxGeometry>
        </mxCell>
        <mxCell id="KmzcfbLIdUhC8Vbk3q4U-17" value="Obrađuje&amp;nbsp;" style="rhombus;whiteSpace=wrap;html=1;" vertex="1" parent="1">
          <mxGeometry x="660" y="560" width="110" height="60" as="geometry" />
        </mxCell>
        <mxCell id="KmzcfbLIdUhC8Vbk3q4U-20" value="" style="endArrow=none;html=1;rounded=0;exitX=0;exitY=0.5;exitDx=0;exitDy=0;" edge="1" parent="1" source="KmzcfbLIdUhC8Vbk3q4U-17">
          <mxGeometry width="50" height="50" relative="1" as="geometry">
            <mxPoint x="655" y="589.5" as="sourcePoint" />
            <mxPoint x="595" y="589.5" as="targetPoint" />
          </mxGeometry>
        </mxCell>
        <mxCell id="KmzcfbLIdUhC8Vbk3q4U-22" value="" style="endArrow=none;html=1;rounded=0;entryX=0.5;entryY=1;entryDx=0;entryDy=0;" edge="1" parent="1">
          <mxGeometry width="50" height="50" relative="1" as="geometry">
            <mxPoint x="715" y="670" as="sourcePoint" />
            <mxPoint x="715" y="620" as="targetPoint" />
          </mxGeometry>
        </mxCell>
        <mxCell id="KmzcfbLIdUhC8Vbk3q4U-23" value="Zaposlenik" style="rounded=0;whiteSpace=wrap;html=1;" vertex="1" parent="1">
          <mxGeometry x="655" y="670" width="120" height="60" as="geometry" />
        </mxCell>
        <mxCell id="KmzcfbLIdUhC8Vbk3q4U-24" value="" style="endArrow=none;html=1;rounded=0;exitX=0;exitY=0.5;exitDx=0;exitDy=0;" edge="1" parent="1" target="KmzcfbLIdUhC8Vbk3q4U-25">
          <mxGeometry width="50" height="50" relative="1" as="geometry">
            <mxPoint x="690" y="380" as="sourcePoint" />
            <mxPoint x="610" y="380" as="targetPoint" />
          </mxGeometry>
        </mxCell>
        <mxCell id="KmzcfbLIdUhC8Vbk3q4U-25" value="Ima" style="rhombus;whiteSpace=wrap;html=1;" vertex="1" parent="1">
          <mxGeometry x="540" y="340" width="100" height="80" as="geometry" />
        </mxCell>
        <mxCell id="KmzcfbLIdUhC8Vbk3q4U-26" value="" style="endArrow=none;html=1;rounded=0;entryX=0;entryY=0.5;entryDx=0;entryDy=0;" edge="1" parent="1" target="KmzcfbLIdUhC8Vbk3q4U-25">
          <mxGeometry width="50" height="50" relative="1" as="geometry">
            <mxPoint x="480" y="380" as="sourcePoint" />
            <mxPoint x="780" y="360" as="targetPoint" />
          </mxGeometry>
        </mxCell>
        <mxCell id="KmzcfbLIdUhC8Vbk3q4U-27" value="Knjižnica" style="rounded=0;whiteSpace=wrap;html=1;" vertex="1" parent="1">
          <mxGeometry x="690" y="350" width="120" height="60" as="geometry" />
        </mxCell>
        <mxCell id="KmzcfbLIdUhC8Vbk3q4U-35" value="1" style="text;html=1;align=center;verticalAlign=middle;whiteSpace=wrap;rounded=0;" vertex="1" parent="1">
          <mxGeometry x="640" y="360" width="40" height="10" as="geometry" />
        </mxCell>
        <mxCell id="KmzcfbLIdUhC8Vbk3q4U-39" value="1" style="text;html=1;align=center;verticalAlign=middle;whiteSpace=wrap;rounded=0;" vertex="1" parent="1">
          <mxGeometry x="450" y="440" width="40" height="10" as="geometry" />
        </mxCell>
        <mxCell id="KmzcfbLIdUhC8Vbk3q4U-40" value="1" style="text;html=1;align=center;verticalAlign=middle;whiteSpace=wrap;rounded=0;" vertex="1" parent="1">
          <mxGeometry x="720" y="640" width="40" height="10" as="geometry" />
        </mxCell>
        <mxCell id="KmzcfbLIdUhC8Vbk3q4U-41" value="1" style="text;html=1;align=center;verticalAlign=middle;whiteSpace=wrap;rounded=0;" vertex="1" parent="1">
          <mxGeometry x="350" y="440" width="40" height="10" as="geometry" />
        </mxCell>
        <mxCell id="KmzcfbLIdUhC8Vbk3q4U-42" value="1" style="text;html=1;align=center;verticalAlign=middle;whiteSpace=wrap;rounded=0;" vertex="1" parent="1">
          <mxGeometry x="100" y="480" width="40" height="10" as="geometry" />
        </mxCell>
        <mxCell id="KmzcfbLIdUhC8Vbk3q4U-44" value="" style="endArrow=none;html=1;rounded=0;exitX=0.5;exitY=1;exitDx=0;exitDy=0;entryX=0.5;entryY=0;entryDx=0;entryDy=0;" edge="1" parent="1" source="KmzcfbLIdUhC8Vbk3q4U-5" target="KmzcfbLIdUhC8Vbk3q4U-15">
          <mxGeometry width="50" height="50" relative="1" as="geometry">
            <mxPoint x="540" y="410" as="sourcePoint" />
            <mxPoint x="590" y="360" as="targetPoint" />
          </mxGeometry>
        </mxCell>
        <mxCell id="KmzcfbLIdUhC8Vbk3q4U-46" value="1" style="text;html=1;align=center;verticalAlign=middle;whiteSpace=wrap;rounded=0;" vertex="1" parent="1">
          <mxGeometry x="170" y="360" width="40" height="10" as="geometry" />
        </mxCell>
        <mxCell id="KmzcfbLIdUhC8Vbk3q4U-49" value="N" style="text;html=1;align=center;verticalAlign=middle;whiteSpace=wrap;rounded=0;" vertex="1" parent="1">
          <mxGeometry x="490" y="360" width="40" height="10" as="geometry" />
        </mxCell>
        <mxCell id="KmzcfbLIdUhC8Vbk3q4U-52" value="N" style="text;html=1;align=center;verticalAlign=middle;whiteSpace=wrap;rounded=0;" vertex="1" parent="1">
          <mxGeometry x="530" y="530" width="40" height="10" as="geometry" />
        </mxCell>
        <mxCell id="KmzcfbLIdUhC8Vbk3q4U-53" value="N" style="text;html=1;align=center;verticalAlign=middle;whiteSpace=wrap;rounded=0;" vertex="1" parent="1">
          <mxGeometry x="610" y="570" width="40" height="10" as="geometry" />
        </mxCell>
        <mxCell id="KmzcfbLIdUhC8Vbk3q4U-54" value="N" style="text;html=1;align=center;verticalAlign=middle;whiteSpace=wrap;rounded=0;" vertex="1" parent="1">
          <mxGeometry x="310" y="530" width="40" height="10" as="geometry" />
        </mxCell>
        <mxCell id="KmzcfbLIdUhC8Vbk3q4U-55" value="N" style="text;html=1;align=center;verticalAlign=middle;whiteSpace=wrap;rounded=0;" vertex="1" parent="1">
          <mxGeometry x="170" y="570" width="40" height="10" as="geometry" />
        </mxCell>
        <mxCell id="KmzcfbLIdUhC8Vbk3q4U-56" value="N" style="text;html=1;align=center;verticalAlign=middle;whiteSpace=wrap;rounded=0;" vertex="1" parent="1">
          <mxGeometry x="310" y="360" width="40" height="10" as="geometry" />
        </mxCell>
        <mxCell id="KmzcfbLIdUhC8Vbk3q4U-57" value="" style="endArrow=none;html=1;rounded=0;exitX=0.5;exitY=0;exitDx=0;exitDy=0;entryX=0.5;entryY=1;entryDx=0;entryDy=0;" edge="1" parent="1" source="KmzcfbLIdUhC8Vbk3q4U-5" target="KmzcfbLIdUhC8Vbk3q4U-61">
          <mxGeometry width="50" height="50" relative="1" as="geometry">
            <mxPoint x="540" y="410" as="sourcePoint" />
            <mxPoint x="90" y="330" as="targetPoint" />
          </mxGeometry>
        </mxCell>
        <mxCell id="KmzcfbLIdUhC8Vbk3q4U-59" value="" style="endArrow=none;html=1;rounded=0;entryX=0.5;entryY=1;entryDx=0;entryDy=0;" edge="1" parent="1" target="KmzcfbLIdUhC8Vbk3q4U-62">
          <mxGeometry width="50" height="50" relative="1" as="geometry">
            <mxPoint x="120" y="350" as="sourcePoint" />
            <mxPoint x="150" y="320" as="targetPoint" />
          </mxGeometry>
        </mxCell>
        <mxCell id="KmzcfbLIdUhC8Vbk3q4U-60" value="&lt;u&gt;ID&lt;/u&gt;" style="ellipse;whiteSpace=wrap;html=1;" vertex="1" parent="1">
          <mxGeometry x="60" y="280" width="50" height="30" as="geometry" />
        </mxCell>
        <mxCell id="KmzcfbLIdUhC8Vbk3q4U-61" value="Ime" style="ellipse;whiteSpace=wrap;html=1;" vertex="1" parent="1">
          <mxGeometry x="115" y="280" width="50" height="30" as="geometry" />
        </mxCell>
        <mxCell id="KmzcfbLIdUhC8Vbk3q4U-62" value="Prezime" style="ellipse;whiteSpace=wrap;html=1;" vertex="1" parent="1">
          <mxGeometry x="170" y="280" width="50" height="30" as="geometry" />
        </mxCell>
        <mxCell id="KmzcfbLIdUhC8Vbk3q4U-63" value="Kontakt" style="ellipse;whiteSpace=wrap;html=1;" vertex="1" parent="1">
          <mxGeometry y="280" width="50" height="30" as="geometry" />
        </mxCell>
        <mxCell id="KmzcfbLIdUhC8Vbk3q4U-64" value="" style="endArrow=none;html=1;rounded=0;exitX=0.5;exitY=1;exitDx=0;exitDy=0;" edge="1" parent="1" source="KmzcfbLIdUhC8Vbk3q4U-63">
          <mxGeometry width="50" height="50" relative="1" as="geometry">
            <mxPoint x="540" y="410" as="sourcePoint" />
            <mxPoint x="60" y="350" as="targetPoint" />
          </mxGeometry>
        </mxCell>
        <mxCell id="KmzcfbLIdUhC8Vbk3q4U-65" value="" style="endArrow=none;html=1;rounded=0;entryX=0.5;entryY=1;entryDx=0;entryDy=0;exitX=0.45;exitY=0;exitDx=0;exitDy=0;exitPerimeter=0;" edge="1" parent="1" source="KmzcfbLIdUhC8Vbk3q4U-5" target="KmzcfbLIdUhC8Vbk3q4U-60">
          <mxGeometry width="50" height="50" relative="1" as="geometry">
            <mxPoint x="540" y="410" as="sourcePoint" />
            <mxPoint x="590" y="360" as="targetPoint" />
          </mxGeometry>
        </mxCell>
        <mxCell id="KmzcfbLIdUhC8Vbk3q4U-66" value="&lt;u&gt;ID&lt;/u&gt;" style="ellipse;whiteSpace=wrap;html=1;" vertex="1" parent="1">
          <mxGeometry x="665" y="770" width="50" height="30" as="geometry" />
        </mxCell>
        <mxCell id="KmzcfbLIdUhC8Vbk3q4U-67" value="Ime" style="ellipse;whiteSpace=wrap;html=1;" vertex="1" parent="1">
          <mxGeometry x="720" y="770" width="50" height="30" as="geometry" />
        </mxCell>
        <mxCell id="KmzcfbLIdUhC8Vbk3q4U-68" value="Prezime" style="ellipse;whiteSpace=wrap;html=1;" vertex="1" parent="1">
          <mxGeometry x="775" y="770" width="50" height="30" as="geometry" />
        </mxCell>
        <mxCell id="KmzcfbLIdUhC8Vbk3q4U-69" value="Radna pozicija" style="ellipse;whiteSpace=wrap;html=1;" vertex="1" parent="1">
          <mxGeometry x="595" y="765" width="65" height="40" as="geometry" />
        </mxCell>
        <mxCell id="KmzcfbLIdUhC8Vbk3q4U-70" value="" style="endArrow=none;html=1;rounded=0;exitX=0.5;exitY=0;exitDx=0;exitDy=0;entryX=0;entryY=1;entryDx=0;entryDy=0;" edge="1" parent="1" source="KmzcfbLIdUhC8Vbk3q4U-69" target="KmzcfbLIdUhC8Vbk3q4U-23">
          <mxGeometry width="50" height="50" relative="1" as="geometry">
            <mxPoint x="540" y="730" as="sourcePoint" />
            <mxPoint x="650" y="730" as="targetPoint" />
          </mxGeometry>
        </mxCell>
        <mxCell id="KmzcfbLIdUhC8Vbk3q4U-71" value="" style="endArrow=none;html=1;rounded=0;exitX=0.5;exitY=0;exitDx=0;exitDy=0;entryX=0.5;entryY=1;entryDx=0;entryDy=0;" edge="1" parent="1" source="KmzcfbLIdUhC8Vbk3q4U-66" target="KmzcfbLIdUhC8Vbk3q4U-23">
          <mxGeometry width="50" height="50" relative="1" as="geometry">
            <mxPoint x="490" y="810" as="sourcePoint" />
            <mxPoint x="685" y="730" as="targetPoint" />
          </mxGeometry>
        </mxCell>
        <mxCell id="KmzcfbLIdUhC8Vbk3q4U-73" value="" style="endArrow=none;html=1;rounded=0;entryX=0.5;entryY=1;entryDx=0;entryDy=0;exitX=0.5;exitY=0;exitDx=0;exitDy=0;" edge="1" parent="1" source="KmzcfbLIdUhC8Vbk3q4U-67" target="KmzcfbLIdUhC8Vbk3q4U-23">
          <mxGeometry width="50" height="50" relative="1" as="geometry">
            <mxPoint x="700" y="780" as="sourcePoint" />
            <mxPoint x="695" y="740" as="targetPoint" />
          </mxGeometry>
        </mxCell>
        <mxCell id="KmzcfbLIdUhC8Vbk3q4U-74" value="" style="endArrow=none;html=1;rounded=0;entryX=0.5;entryY=1;entryDx=0;entryDy=0;exitX=0.5;exitY=0;exitDx=0;exitDy=0;" edge="1" parent="1">
          <mxGeometry width="50" height="50" relative="1" as="geometry">
            <mxPoint x="790" y="770" as="sourcePoint" />
            <mxPoint x="760" y="730" as="targetPoint" />
          </mxGeometry>
        </mxCell>
        <mxCell id="KmzcfbLIdUhC8Vbk3q4U-77" value="" style="endArrow=none;html=1;rounded=0;exitX=0.5;exitY=0;exitDx=0;exitDy=0;entryX=0.5;entryY=1;entryDx=0;entryDy=0;" edge="1" parent="1" target="KmzcfbLIdUhC8Vbk3q4U-80">
          <mxGeometry width="50" height="50" relative="1" as="geometry">
            <mxPoint x="420" y="350" as="sourcePoint" />
            <mxPoint x="420" y="330" as="targetPoint" />
          </mxGeometry>
        </mxCell>
        <mxCell id="KmzcfbLIdUhC8Vbk3q4U-78" value="" style="endArrow=none;html=1;rounded=0;entryX=0.5;entryY=1;entryDx=0;entryDy=0;" edge="1" parent="1" target="KmzcfbLIdUhC8Vbk3q4U-81">
          <mxGeometry width="50" height="50" relative="1" as="geometry">
            <mxPoint x="450" y="350" as="sourcePoint" />
            <mxPoint x="480" y="320" as="targetPoint" />
          </mxGeometry>
        </mxCell>
        <mxCell id="KmzcfbLIdUhC8Vbk3q4U-79" value="&lt;u&gt;ISBN&lt;/u&gt;" style="ellipse;whiteSpace=wrap;html=1;" vertex="1" parent="1">
          <mxGeometry x="390" y="280" width="50" height="30" as="geometry" />
        </mxCell>
        <mxCell id="KmzcfbLIdUhC8Vbk3q4U-80" value="Autor" style="ellipse;whiteSpace=wrap;html=1;" vertex="1" parent="1">
          <mxGeometry x="445" y="280" width="50" height="30" as="geometry" />
        </mxCell>
        <mxCell id="KmzcfbLIdUhC8Vbk3q4U-81" value="Datum" style="ellipse;whiteSpace=wrap;html=1;" vertex="1" parent="1">
          <mxGeometry x="500" y="280" width="50" height="30" as="geometry" />
        </mxCell>
        <mxCell id="KmzcfbLIdUhC8Vbk3q4U-82" value="Naslov" style="ellipse;whiteSpace=wrap;html=1;" vertex="1" parent="1">
          <mxGeometry x="330" y="280" width="50" height="30" as="geometry" />
        </mxCell>
        <mxCell id="KmzcfbLIdUhC8Vbk3q4U-83" value="" style="endArrow=none;html=1;rounded=0;exitX=0.5;exitY=1;exitDx=0;exitDy=0;" edge="1" parent="1" source="KmzcfbLIdUhC8Vbk3q4U-82">
          <mxGeometry width="50" height="50" relative="1" as="geometry">
            <mxPoint x="870" y="410" as="sourcePoint" />
            <mxPoint x="390" y="350" as="targetPoint" />
          </mxGeometry>
        </mxCell>
        <mxCell id="KmzcfbLIdUhC8Vbk3q4U-84" value="" style="endArrow=none;html=1;rounded=0;entryX=0.5;entryY=1;entryDx=0;entryDy=0;exitX=0.45;exitY=0;exitDx=0;exitDy=0;exitPerimeter=0;" edge="1" parent="1" target="KmzcfbLIdUhC8Vbk3q4U-79">
          <mxGeometry width="50" height="50" relative="1" as="geometry">
            <mxPoint x="414" y="350" as="sourcePoint" />
            <mxPoint x="920" y="360" as="targetPoint" />
          </mxGeometry>
        </mxCell>
        <mxCell id="KmzcfbLIdUhC8Vbk3q4U-85" value="&lt;u&gt;ID&lt;/u&gt;" style="ellipse;whiteSpace=wrap;html=1;" vertex="1" parent="1">
          <mxGeometry x="525" y="660" width="50" height="30" as="geometry" />
        </mxCell>
        <mxCell id="KmzcfbLIdUhC8Vbk3q4U-86" value="datum vraćanja" style="ellipse;whiteSpace=wrap;html=1;" vertex="1" parent="1">
          <mxGeometry x="580" y="660" width="50" height="30" as="geometry" />
        </mxCell>
        <mxCell id="KmzcfbLIdUhC8Vbk3q4U-88" value="datum posudbe" style="ellipse;whiteSpace=wrap;html=1;" vertex="1" parent="1">
          <mxGeometry x="470" y="657.5" width="50" height="32.5" as="geometry" />
        </mxCell>
        <mxCell id="KmzcfbLIdUhC8Vbk3q4U-89" value="" style="endArrow=none;html=1;rounded=0;exitX=0.5;exitY=0;exitDx=0;exitDy=0;entryX=0.25;entryY=1;entryDx=0;entryDy=0;" edge="1" parent="1" source="KmzcfbLIdUhC8Vbk3q4U-88" target="KmzcfbLIdUhC8Vbk3q4U-14">
          <mxGeometry width="50" height="50" relative="1" as="geometry">
            <mxPoint x="370" y="620" as="sourcePoint" />
            <mxPoint x="485" y="620" as="targetPoint" />
          </mxGeometry>
        </mxCell>
        <mxCell id="KmzcfbLIdUhC8Vbk3q4U-90" value="" style="endArrow=none;html=1;rounded=0;exitX=0.5;exitY=0;exitDx=0;exitDy=0;entryX=0.5;entryY=1;entryDx=0;entryDy=0;" edge="1" parent="1" source="KmzcfbLIdUhC8Vbk3q4U-85" target="KmzcfbLIdUhC8Vbk3q4U-14">
          <mxGeometry width="50" height="50" relative="1" as="geometry">
            <mxPoint x="320" y="700" as="sourcePoint" />
            <mxPoint x="545" y="620" as="targetPoint" />
          </mxGeometry>
        </mxCell>
        <mxCell id="KmzcfbLIdUhC8Vbk3q4U-91" value="" style="endArrow=none;html=1;rounded=0;entryX=0.75;entryY=1;entryDx=0;entryDy=0;exitX=0.5;exitY=0;exitDx=0;exitDy=0;" edge="1" parent="1" source="KmzcfbLIdUhC8Vbk3q4U-86" target="KmzcfbLIdUhC8Vbk3q4U-14">
          <mxGeometry width="50" height="50" relative="1" as="geometry">
            <mxPoint x="530" y="670" as="sourcePoint" />
            <mxPoint x="545" y="620" as="targetPoint" />
          </mxGeometry>
        </mxCell>
        <mxCell id="KmzcfbLIdUhC8Vbk3q4U-93" value="&lt;u&gt;ID knjige&lt;/u&gt;" style="ellipse;whiteSpace=wrap;html=1;" vertex="1" parent="1">
          <mxGeometry x="270" y="660" width="52.5" height="40" as="geometry" />
        </mxCell>
        <mxCell id="KmzcfbLIdUhC8Vbk3q4U-94" value="iznos" style="ellipse;whiteSpace=wrap;html=1;" vertex="1" parent="1">
          <mxGeometry x="327.5" y="660" width="52.5" height="40" as="geometry" />
        </mxCell>
        <mxCell id="KmzcfbLIdUhC8Vbk3q4U-95" value="&lt;u&gt;ID korisnika&lt;/u&gt;" style="ellipse;whiteSpace=wrap;html=1;" vertex="1" parent="1">
          <mxGeometry x="210" y="660" width="57.5" height="40" as="geometry" />
        </mxCell>
        <mxCell id="KmzcfbLIdUhC8Vbk3q4U-96" value="" style="endArrow=none;html=1;rounded=0;entryX=0.5;entryY=1;entryDx=0;entryDy=0;exitX=0.5;exitY=0;exitDx=0;exitDy=0;" edge="1" parent="1" source="KmzcfbLIdUhC8Vbk3q4U-93" target="KmzcfbLIdUhC8Vbk3q4U-13">
          <mxGeometry width="50" height="50" relative="1" as="geometry">
            <mxPoint x="540" y="530" as="sourcePoint" />
            <mxPoint x="590" y="480" as="targetPoint" />
          </mxGeometry>
        </mxCell>
        <mxCell id="KmzcfbLIdUhC8Vbk3q4U-97" value="" style="endArrow=none;html=1;rounded=0;entryX=0.75;entryY=1;entryDx=0;entryDy=0;exitX=0.5;exitY=0;exitDx=0;exitDy=0;" edge="1" parent="1" source="KmzcfbLIdUhC8Vbk3q4U-94" target="KmzcfbLIdUhC8Vbk3q4U-13">
          <mxGeometry width="50" height="50" relative="1" as="geometry">
            <mxPoint x="308" y="670" as="sourcePoint" />
            <mxPoint x="308" y="630" as="targetPoint" />
          </mxGeometry>
        </mxCell>
        <mxCell id="KmzcfbLIdUhC8Vbk3q4U-98" value="" style="endArrow=none;html=1;rounded=0;entryX=0.25;entryY=1;entryDx=0;entryDy=0;exitX=0.5;exitY=0;exitDx=0;exitDy=0;" edge="1" parent="1" source="KmzcfbLIdUhC8Vbk3q4U-95" target="KmzcfbLIdUhC8Vbk3q4U-13">
          <mxGeometry width="50" height="50" relative="1" as="geometry">
            <mxPoint x="318" y="680" as="sourcePoint" />
            <mxPoint x="318" y="640" as="targetPoint" />
          </mxGeometry>
        </mxCell>
        <mxCell id="KmzcfbLIdUhC8Vbk3q4U-99" value="&lt;u&gt;ID&lt;/u&gt;" style="ellipse;whiteSpace=wrap;html=1;" vertex="1" parent="1">
          <mxGeometry x="725" y="442.5" width="50" height="30" as="geometry" />
        </mxCell>
        <mxCell id="KmzcfbLIdUhC8Vbk3q4U-100" value="Naziv" style="ellipse;whiteSpace=wrap;html=1;" vertex="1" parent="1">
          <mxGeometry x="780" y="442.5" width="50" height="30" as="geometry" />
        </mxCell>
        <mxCell id="KmzcfbLIdUhC8Vbk3q4U-101" value="Adresa" style="ellipse;whiteSpace=wrap;html=1;" vertex="1" parent="1">
          <mxGeometry x="670" y="440" width="50" height="32.5" as="geometry" />
        </mxCell>
        <mxCell id="KmzcfbLIdUhC8Vbk3q4U-102" value="" style="endArrow=none;html=1;rounded=0;entryX=0.5;entryY=1;entryDx=0;entryDy=0;exitX=0.5;exitY=0;exitDx=0;exitDy=0;" edge="1" parent="1" source="KmzcfbLIdUhC8Vbk3q4U-99" target="KmzcfbLIdUhC8Vbk3q4U-27">
          <mxGeometry width="50" height="50" relative="1" as="geometry">
            <mxPoint x="715" y="460" as="sourcePoint" />
            <mxPoint x="765" y="410" as="targetPoint" />
          </mxGeometry>
        </mxCell>
        <mxCell id="KmzcfbLIdUhC8Vbk3q4U-106" value="" style="endArrow=none;html=1;rounded=0;entryX=0.75;entryY=1;entryDx=0;entryDy=0;exitX=0.5;exitY=0;exitDx=0;exitDy=0;" edge="1" parent="1" source="KmzcfbLIdUhC8Vbk3q4U-100" target="KmzcfbLIdUhC8Vbk3q4U-27">
          <mxGeometry width="50" height="50" relative="1" as="geometry">
            <mxPoint x="800" y="440" as="sourcePoint" />
            <mxPoint x="760" y="420" as="targetPoint" />
          </mxGeometry>
        </mxCell>
        <mxCell id="KmzcfbLIdUhC8Vbk3q4U-107" value="" style="endArrow=none;html=1;rounded=0;entryX=0.25;entryY=1;entryDx=0;entryDy=0;exitX=0.5;exitY=0;exitDx=0;exitDy=0;" edge="1" parent="1" source="KmzcfbLIdUhC8Vbk3q4U-101" target="KmzcfbLIdUhC8Vbk3q4U-27">
          <mxGeometry width="50" height="50" relative="1" as="geometry">
            <mxPoint x="540" y="530" as="sourcePoint" />
            <mxPoint x="590" y="480" as="targetPoint" />
          </mxGeometry>
        </mxCell>
      </root>
    </mxGraphModel>
  </diagram>
</mxfile>
